<?xml version="1.0"?>
<svg width="580" height="580" xmlns="http://www.w3.org/2000/svg">

 <metadata id="metadata10">image/svg+xmlen</metadata>
 <g>
  <title>background</title>
  <rect fill="none" id="canvas_background" height="402" width="582" y="-1" x="-1"/>
 </g>
 <g>
  <title>Layer 1</title>
  <path stroke="#eeeeee" stroke-width="0" fill="#f44336" id="path1329" d="m66.275002,1.768c-41.335001,0 -64.571002,21.371 -64.571002,65.036001l0,450.123001c0,40.843994 20.894,62.229004 62.192,62.229004l452.023983,0c41.307007,0 62.229004,-20.315979 62.229004,-62.229004l0,-450.123001c0,-42.601002 -20.921997,-65.036001 -63.521973,-65.036001c-0.002991,0 -448.494011,-0.143 -448.352013,0z"/>
  <g id="g2319">
   <path transform="translate(879.291259765625,36.805118560791016) " fill="#ffffff" id="path2323"/>
  </g>
  <g id="g2325">
   <path transform="translate(879.291259765625,36.805118560791016) " fill="#ffffff" id="path2329"/>
  </g>
  <path fill-rule="evenodd" stroke="#ffffff" stroke-width="26" fill="none" d="m49.122272,352.429932a-77.08416,77.08416 0 1 1 154.168316,0a-77.08416,77.08416 0 1 1 -154.168316,0z" id="path596"/>
  <path fill-rule="evenodd" stroke="#ffffff" stroke-width="26" fill="none" d="m379.483124,350.928253a-77.08416,77.08416 0 1 1 154.168304,0a-77.08416,77.08416 0 1 1 -154.168304,0z" id="path595"/>
  <path fill-rule="evenodd" stroke="#ffffff" stroke-width="20.529715" stroke-linejoin="round" fill="none" d="m395.500641,219.785065l-198.216446,1.001114l-70.076485,130.142105l134.146477,0l140.153015,-95.103836" id="path594"/>
  <path fill-rule="evenodd" stroke-width="25" stroke-linecap="round" fill="#ffffff" d="m387.883911,141.791016c10.766785,0 18.905029,-0.240219 27.246674,12.503326c2.401093,4.248123 3.498901,9.435074 2.612305,14.598221c-1.063599,5.871017 -4.539429,11.639191 -8.637054,15.053848c-5.425873,4.521591 -10.575226,4.172791 -9.743011,8.237442c1.06778,5.215454 4.326477,12.463013 7.848053,24.231552c3.574677,11.945862 7.819366,26.566467 11.985931,40.967255c4.166534,14.400726 8.256592,28.589417 11.494141,39.645691c1.618835,5.528107 3.032623,10.274933 4.118286,13.829895c1.05777,3.463593 1.991669,6.154022 1.905426,5.962219c3.373077,5.934692 3.832214,9.801666 9.489899,14.852905c6.343536,5.551788 11.508362,9.653137 13.300842,10.905975c4.552826,3.307312 6.669403,10.287048 4.265198,13.735779c-3.029907,4.700073 -9.287415,5.421021 -13.86087,4.014923c-4.34256,-1.37854 -11.216827,-3.746429 -19.188019,-10.348572l-0.061462,-0.092194l-0.092194,-0.061493c-11.091461,-9.513611 -15.194855,-21.060181 -15.612396,-21.728271l-0.583954,-0.891266l-0.399536,-0.983459c-0.96109,-2.365814 -1.536774,-4.451874 -2.673767,-8.175018c-1.137024,-3.723114 -2.5784,-8.533081 -4.210449,-14.106476c-3.264069,-11.146759 -7.333374,-25.357025 -11.494171,-39.737885c-4.160828,-14.380875 -8.395142,-28.927032 -11.924438,-40.72139c-3.529358,-11.794327 -5.759064,-21.480942 -6.583282,-23.541565c-2.006165,-5.01532 -3.031036,-10.42981 -1.659607,-15.858292c1.371399,-5.428452 5.469574,-9.809708 9.148346,-10.828171c8.397064,-2.349228 6.169037,-8.389175 1.872986,-8.397934l-36.000488,-0.073288l-0.088745,-22.993256c0.000244,-0.000504 23.367828,-0.000504 37.52536,-0.000504z" id="path593"/>
  <path fill-rule="evenodd" stroke="#ffffff" stroke-width="24.586485" fill="#ffffff" d="m258.785675,346.853485l-67.956451,-166.3517" id="path599"/>
  <path fill-rule="evenodd" stroke="#ffffff" stroke-width="8.974068" stroke-linecap="round" fill="#ffffff" d="m282.147003,304.378784l-41.05957,95.567627" id="path600"/>
  <path fill-rule="evenodd" stroke="#ffffff" stroke-width="10" fill="#ffffff" d="m238.869232,351.177765a-21.734249,19.196575 0 1 1 43.468506,0a-21.734249,19.196575 0 1 1 -43.468506,0z" id="path597"/>
  <path fill-rule="evenodd" stroke="#ffffff" stroke-width="12.539586" stroke-linecap="round" stroke-miterlimit="4" fill="#ffffff" d="m300.426086,304.422363l-36.269928,0.332458" id="path601"/>
  <path fill-rule="evenodd" stroke="#ffffff" stroke-width="12.539107" stroke-linecap="round" fill="#ffffff" d="m259.576904,398.573639l-36.269958,0.332458" id="path602"/>
  <path fill-rule="evenodd" stroke-width="0.55582194pt" fill="#ffffff" d="m157.558548,165.635757l85.299576,0c3.185471,0 7.296921,5.634872 3.185471,9.37941c-4.446747,4.232056 -44.41951,12.918808 -44.41951,12.918808c0,0 -10.972122,3.008484 -16.812164,2.300629c-5.839996,-0.707886 -26.014587,-2.477585 -27.253372,-24.598846z" id="path603"/>
 </g>
</svg>