<?xml version="1.0"?>
<svg width="580" height="580" xmlns="http://www.w3.org/2000/svg">

 <metadata id="metadata10">image/svg+xmlen</metadata>
 <g>
  <title>background</title>
  <rect fill="none" id="canvas_background" height="402" width="582" y="-1" x="-1"/>
 </g>
 <g>
  <title>Layer 1</title>
  <path stroke="#eeeeee" stroke-width="0" fill="#333333" id="path1329" d="m66.275002,1.768c-41.335001,0 -64.571002,21.371 -64.571002,65.036001l0,450.123001c0,40.843994 20.894,62.229004 62.192,62.229004l452.023983,0c41.307007,0 62.229004,-20.315979 62.229004,-62.229004l0,-450.123001c0,-42.601002 -20.921997,-65.036001 -63.521973,-65.036001c-0.002991,0 -448.494011,-0.143 -448.352013,0z"/>
  <g id="g2319">
   <path fill="#ffffff" id="path2323"/>
  </g>
  <g id="g2325">
   <path fill="#ffffff" id="path2329"/>
  </g>
  <path fill-rule="evenodd" stroke="#ffffff" stroke-width="26" fill="none" d="m138.312546,471.72464a-64.081856,64.081856 0 1 1 128.163742,0a-64.081856,64.081856 0 1 1 -128.163742,0z" id="path596"/>
  <path fill-rule="evenodd" stroke="#ffffff" stroke-width="26" fill="none" d="m412.949249,470.476257a-64.081856,64.081856 0 1 1 128.163727,0a-64.081856,64.081856 0 1 1 -128.163727,0z" id="path595"/>
  <path fill-rule="evenodd" stroke="#ffffff" stroke-width="17.066832" stroke-linejoin="round" fill="none" d="m426.264984,361.453827l-164.781952,0.832275l-58.256226,108.190155l111.519104,0l116.512451,-79.062042" id="path594"/>
  <path fill-rule="evenodd" stroke-width="25" stroke-linecap="round" fill="#ffffff" d="m419.933014,296.61557c8.950684,0 15.716187,-0.199707 22.650787,10.394287c1.996094,3.531586 2.908722,7.843597 2.171692,12.135864c-0.884186,4.880707 -3.773743,9.675934 -7.180176,12.514587c-4.510681,3.758911 -8.791443,3.468964 -8.09964,6.847992c0.887695,4.335754 3.59671,10.360779 6.524292,20.144257c2.97171,9.930878 6.500427,22.085327 9.964172,34.057037c3.463745,11.97168 6.863922,23.767059 9.555389,32.958405c1.345734,4.595642 2.521057,8.541779 3.423584,11.497101c0.879364,2.879364 1.655731,5.115997 1.584045,4.956543c2.804108,4.933624 3.185822,8.148346 7.889191,12.347565c5.273499,4.615326 9.567139,8.024872 11.057281,9.066376c3.784882,2.749481 5.544434,8.55188 3.545746,11.418884c-2.518829,3.907257 -7.720825,4.506622 -11.522827,3.337708c-3.610107,-1.146027 -9.324829,-3.114502 -15.951477,-8.603027l-0.051086,-0.07663l-0.07666,-0.051117c-9.220581,-7.908905 -12.631805,-17.507843 -12.978943,-18.063202l-0.485443,-0.740936l-0.332153,-0.817596c-0.79895,-1.966736 -1.277557,-3.700958 -2.222748,-6.796082c-0.945251,-3.095123 -2.143494,-7.09375 -3.500275,-11.727051c-2.713501,-9.266541 -6.096375,-21.079895 -9.555359,-33.035034c-3.458984,-11.955139 -6.979065,-24.047699 -9.913086,-33.852631c-2.93399,-9.804901 -4.787628,-17.857605 -5.472809,-19.570648c-1.667755,-4.169373 -2.519775,-8.670532 -1.379669,-13.18338c1.140076,-4.512787 4.546967,-8.155029 7.605225,-9.001709c6.980682,-1.952972 5.128448,-6.974121 1.557068,-6.981384l-29.92807,-0.060913l-0.073761,-19.114868c0.000183,-0.000397 19.426208,-0.000397 31.195709,-0.000397z" id="path593"/>
  <path fill-rule="evenodd" stroke="#ffffff" stroke-width="20.43932" fill="#ffffff" d="m312.610657,467.088776l-56.493805,-138.292053" id="path599"/>
  <path fill-rule="evenodd" stroke="#ffffff" stroke-width="7.460352" stroke-linecap="round" fill="#ffffff" d="m332.031464,431.778595l-34.133789,79.447571" id="path600"/>
  <path fill-rule="evenodd" stroke="#ffffff" stroke-width="10" fill="#ffffff" d="m296.05365,470.683655a-18.068182,15.95856 0 1 1 36.136383,0a-18.068182,15.95856 0 1 1 -36.136383,0z" id="path597"/>
  <path fill-rule="evenodd" stroke="#ffffff" stroke-width="10.424451" stroke-linecap="round" stroke-miterlimit="4" fill="#ffffff" d="m347.227295,431.814789l-30.152039,0.276398" id="path601"/>
  <path fill-rule="evenodd" stroke="#ffffff" stroke-width="10.424052" stroke-linecap="round" fill="#ffffff" d="m313.268402,510.084961l-30.152069,0.276367" id="path602"/>
  <path fill-rule="evenodd" stroke-width="0.55582194pt" fill="#ffffff" d="m228.45816,316.438263l70.91153,0c2.648163,0 6.066101,4.684387 2.648163,7.797302c-3.696686,3.518219 -36.926971,10.739716 -36.926971,10.739716c0,0 -9.121399,2.501038 -13.976364,1.912567c-4.854919,-0.58847 -21.626511,-2.059692 -22.656357,-20.449585z" id="path603"/>
  <path stroke-width="1px" fill="#ffffff" id="text2419" d="m49.755619,424.597504l0,-369.875374l139.523251,0c24.557236,0.000359 43.311707,1.17778 56.263443,3.53223c18.165543,3.027988 33.387772,8.788891 45.666733,17.282719c12.278442,8.494522 22.160278,20.394768 29.645538,35.700783c7.48468,15.306648 11.227142,32.126793 11.227478,50.460487c-0.000336,31.453934 -10.008331,58.071808 -30.023987,79.853714c-20.016266,21.782288 -56.179596,32.67334 -108.490067,32.673187l-94.865723,0l0,150.372253l-48.946667,0zm48.946667,-194.020599l95.622635,0c31.621689,0.000198 54.076584,-5.886841 67.364746,-17.661163c13.287659,-11.773895 19.93161,-28.341736 19.931885,-49.703583c-0.000275,-15.474274 -3.91095,-28.720123 -11.732056,-39.737625c-7.821625,-11.016907 -18.123962,-18.291611 -30.907043,-21.82415c-8.242096,-2.186302 -23.464325,-3.27961 -45.666748,-3.27993l-94.613419,0l0,132.206451z"/>
 </g>
</svg>